@startuml

class Person {
  fornavn: String
  mellemnavn: String
  efternavn: String
  personnummer: Int

}
class Adresse {
  vejnavn: String
  nummer: Integer
  dørEllerSide: String
  postnummer: Integer

}
class OrgPerson {
  orgPersonNavn: String

}
class Organisation {
  organisationsnavn: String

}
class University {
  universityName String

}
class Uddannelse {
  uddannelsesnavn

}
class Class 7 {
  attribute: Type
  method(): ReturnType
}
Person o-- OrgPerson
Organisation o-- OrgPerson
Adresse --> University
University --> Organisation
University --> Uddannelse
Adresse --> Class 7
@enduml
